<svg id="visual" viewBox="0 0 900 600" width="900" height="600" xmlns="http://www.w3.org/2000/svg" xmlns:xlink="http://www.w3.org/1999/xlink" version="1.1"><g><g transform="translate(828 472)"><path d="M0 -65.7L51.4 -41L64 14.6L28.5 59.2L-28.5 59.2L-64 14.6L-51.4 -41Z" fill="none" stroke="#efefef" stroke-width="2"></path></g><g transform="translate(138 282)"><path d="M0 -26L20.3 -16.2L25.3 5.8L11.3 23.4L-11.3 23.4L-25.3 5.8L-20.3 -16.2Z" fill="none" stroke="#efefef" stroke-width="2"></path></g><g transform="translate(281 288)"><path d="M0 -30L23.5 -18.7L29.2 6.7L13 27L-13 27L-29.2 6.7L-23.5 -18.7Z" fill="none" stroke="#efefef" stroke-width="2"></path></g><g transform="translate(193 451)"><path d="M0 -38L29.7 -23.7L37 8.5L16.5 34.2L-16.5 34.2L-37 8.5L-29.7 -23.7Z" stroke="#efefef" fill="none" stroke-width="2"></path></g><g transform="translate(725 294)"><path d="M0 -34L26.6 -21.2L33.1 7.6L14.8 30.6L-14.8 30.6L-33.1 7.6L-26.6 -21.2Z" stroke="#efefef" fill="none" stroke-width="2"></path></g><g transform="translate(586 397)"><path d="M0 -64L50 -39.9L62.4 14.2L27.8 57.7L-27.8 57.7L-62.4 14.2L-50 -39.9Z" stroke="#efefef" fill="none" stroke-width="2"></path></g><g transform="translate(369 109)"><path d="M0 -46L36 -28.7L44.8 10.2L20 41.4L-20 41.4L-44.8 10.2L-36 -28.7Z" stroke="#efefef" fill="none" stroke-width="2"></path></g></g></svg>